<mxfile host="Electron" modified="2025-01-16T00:00:00.000Z" agent="Mozilla/5.0" etag="schema1" version="24.6.4" type="device">
  <diagram name="Schema 1: Sharding" id="schema1">
    <mxGraphModel dx="1200" dy="800" grid="1" gridSize="10" guides="1" tooltips="1" connect="1" arrows="1" fold="1" page="1" pageScale="1" pageWidth="1400" pageHeight="900" math="0" shadow="0">
      <root>
        <mxCell id="0" />
        <mxCell id="1" parent="0" />

        <!-- pymongo-api -->
        <mxCell id="api" value="pymongo-api" style="rounded=1;whiteSpace=wrap;html=1;fillColor=#dae8fc;strokeColor=#6c8ebf;" vertex="1" parent="1">
          <mxGeometry x="200" y="400" width="120" height="60" as="geometry" />
        </mxCell>

        <!-- mongos_router -->
        <mxCell id="mongos" value="mongos_router&#xa;(Router)" style="rounded=1;whiteSpace=wrap;html=1;fillColor=#fff2cc;strokeColor=#d6b656;" vertex="1" parent="1">
          <mxGeometry x="400" y="400" width="120" height="60" as="geometry" />
        </mxCell>

        <!-- configSrv -->
        <mxCell id="config" value="configSrv&#xa;(Config Server)" style="shape=cylinder3;whiteSpace=wrap;html=1;boundedLbl=1;backgroundOutline=1;size=15;fillColor=#e1d5e7;strokeColor=#9673a6;" vertex="1" parent="1">
          <mxGeometry x="430" y="250" width="80" height="100" as="geometry" />
        </mxCell>

        <!-- shard1 -->
        <mxCell id="shard1" value="shard1&#xa;(Shard 1)" style="shape=cylinder3;whiteSpace=wrap;html=1;boundedLbl=1;backgroundOutline=1;size=15;fillColor=#d5e8d4;strokeColor=#82b366;" vertex="1" parent="1">
          <mxGeometry x="600" y="300" width="80" height="100" as="geometry" />
        </mxCell>

        <!-- shard2 -->
        <mxCell id="shard2" value="shard2&#xa;(Shard 2)" style="shape=cylinder3;whiteSpace=wrap;html=1;boundedLbl=1;backgroundOutline=1;size=15;fillColor=#d5e8d4;strokeColor=#82b366;" vertex="1" parent="1">
          <mxGeometry x="600" y="480" width="80" height="100" as="geometry" />
        </mxCell>

        <!-- Connections -->
        <mxCell id="conn1" style="edgeStyle=orthogonalEdgeStyle;rounded=0;orthogonalLoop=1;jettySize=auto;html=1;exitX=1;exitY=0.5;exitDx=0;exitDy=0;entryX=0;entryY=0.5;entryDx=0;entryDy=0;endArrow=classic;endFill=1;" edge="1" parent="1" source="api" target="mongos">
          <mxGeometry relative="1" as="geometry" />
        </mxCell>

        <mxCell id="conn2" style="edgeStyle=orthogonalEdgeStyle;rounded=0;orthogonalLoop=1;jettySize=auto;html=1;exitX=0.5;exitY=0;exitDx=0;exitDy=0;entryX=0.5;entryY=1;entryDx=0;entryDy=0;entryPerimeter=0;endArrow=classic;endFill=1;dashed=1;" edge="1" parent="1" source="mongos" target="config">
          <mxGeometry relative="1" as="geometry" />
        </mxCell>

        <mxCell id="conn3" style="edgeStyle=orthogonalEdgeStyle;rounded=0;orthogonalLoop=1;jettySize=auto;html=1;exitX=1;exitY=0.25;exitDx=0;exitDy=0;entryX=0;entryY=0.5;entryDx=0;entryDy=0;entryPerimeter=0;endArrow=classic;endFill=1;" edge="1" parent="1" source="mongos" target="shard1">
          <mxGeometry relative="1" as="geometry" />
        </mxCell>

        <mxCell id="conn4" style="edgeStyle=orthogonalEdgeStyle;rounded=0;orthogonalLoop=1;jettySize=auto;html=1;exitX=1;exitY=0.75;exitDx=0;exitDy=0;entryX=0;entryY=0.5;entryDx=0;entryDy=0;entryPerimeter=0;endArrow=classic;endFill=1;" edge="1" parent="1" source="mongos" target="shard2">
          <mxGeometry relative="1" as="geometry" />
        </mxCell>

        <!-- Labels -->
        <mxCell id="title" value="Схема 1: MongoDB с шардированием (2 шарда)" style="text;html=1;strokeColor=none;fillColor=none;align=center;verticalAlign=middle;whiteSpace=wrap;rounded=0;fontSize=16;fontStyle=1" vertex="1" parent="1">
          <mxGeometry x="200" y="150" width="480" height="30" as="geometry" />
        </mxCell>

        <mxCell id="legend" value="Схема показывает архитектуру MongoDB с шардированием:&#xa;- pymongo-api подключается к mongos_router&#xa;- mongos_router распределяет запросы между шардами&#xa;- configSrv хранит метаданные о шардах" style="text;html=1;strokeColor=#666666;fillColor=#f5f5f5;align=left;verticalAlign=top;whiteSpace=wrap;rounded=1;fontSize=10;fontColor=#333333;" vertex="1" parent="1">
          <mxGeometry x="750" y="250" width="280" height="100" as="geometry" />
        </mxCell>

      </root>
    </mxGraphModel>
  </diagram>
</mxfile>
